<?xml version="1.0" encoding="UTF-8" standalone="no"?>
<!DOCTYPE svg PUBLIC "-//W3C//DTD SVG 1.1//EN"
 "http://www.w3.org/Graphics/SVG/1.1/DTD/svg11.dtd">
<!-- Generated by graphviz version 2.40.1 (20161225.0304)
 -->
<!-- Title: msre&#45;proc Pages: 1 -->
<svg width="637pt" height="116pt"
 viewBox="0.00 0.00 636.89 116.00" xmlns="http://www.w3.org/2000/svg" xmlns:xlink="http://www.w3.org/1999/xlink">
<g id="graph0" class="graph" transform="scale(1 1) rotate(0) translate(4 112)">
<title>msre&#45;proc</title>
<polygon fill="#ffffff" stroke="transparent" points="-4,4 -4,-112 632.887,-112 632.887,4 -4,4"/>
<!-- A -->
<g id="node1" class="node">
<title>A</title>
<ellipse fill="none" stroke="#000000" cx="318.3933" cy="-90" rx="83.6854" ry="18"/>
<text text-anchor="middle" x="318.3933" y="-86.3" font-family="Times,serif" font-size="14.00" fill="#000000">Fuel Processing Cell</text>
</g>
<!-- B -->
<g id="node2" class="node">
<title>B</title>
<ellipse fill="none" stroke="#000000" cx="75.3933" cy="-18" rx="75.2868" ry="18"/>
<text text-anchor="middle" x="75.3933" y="-14.3" font-family="Times,serif" font-size="14.00" fill="#000000">Gas Supply Tanks</text>
</g>
<!-- A&#45;&gt;B -->
<g id="edge1" class="edge">
<title>A&#45;&gt;B</title>
<path fill="none" stroke="#000000" d="M268.9257,-75.3429C229.3571,-63.6189 173.8363,-47.1683 132.4036,-34.892"/>
<polygon fill="#000000" stroke="#000000" points="133.3083,-31.5096 122.726,-32.0245 131.3196,-38.2212 133.3083,-31.5096"/>
</g>
<!-- C -->
<g id="node3" class="node">
<title>C</title>
<ellipse fill="none" stroke="#000000" cx="318.3933" cy="-18" rx="149.4735" ry="18"/>
<text text-anchor="middle" x="318.3933" y="-14.3" font-family="Times,serif" font-size="14.00" fill="#000000">High Temp Sodium Fluoride Absorber</text>
</g>
<!-- A&#45;&gt;C -->
<g id="edge2" class="edge">
<title>A&#45;&gt;C</title>
<path fill="none" stroke="#000000" d="M318.3933,-71.8314C318.3933,-64.131 318.3933,-54.9743 318.3933,-46.4166"/>
<polygon fill="#000000" stroke="#000000" points="321.8934,-46.4132 318.3933,-36.4133 314.8934,-46.4133 321.8934,-46.4132"/>
</g>
<!-- D -->
<g id="node4" class="node">
<title>D</title>
<ellipse fill="none" stroke="#000000" cx="557.3933" cy="-18" rx="71.4873" ry="18"/>
<text text-anchor="middle" x="557.3933" y="-14.3" font-family="Times,serif" font-size="14.00" fill="#000000">Caustic Scrubber</text>
</g>
<!-- A&#45;&gt;D -->
<g id="edge3" class="edge">
<title>A&#45;&gt;D</title>
<path fill="none" stroke="#000000" d="M367.3353,-75.256C406.3202,-63.5116 460.9142,-47.0648 501.593,-34.8101"/>
<polygon fill="#000000" stroke="#000000" points="502.7895,-38.1051 511.3548,-31.8693 500.7703,-31.4027 502.7895,-38.1051"/>
</g>
<!-- E -->
<g id="node5" class="node">
<title>E</title>
<ellipse fill="none" stroke="#000000" cx="513.3933" cy="-90" rx="92.8835" ry="18"/>
<text text-anchor="middle" x="513.3933" y="-86.3" font-family="Times,serif" font-size="14.00" fill="#000000">Portable UF6 Absorber</text>
</g>
</g>
</svg>
